PathFileType	4	(X/Y/Z)	C:\Users\°ÂÌØÂü\Desktop\20210112\bx_n_0_901-Unnamed.trc
DataRate	CameraRate	NumFrames	NumMarkers	Units	OrigDataRate	OrigDataStartFrame	OrigNumFrames
50.00	50.00	       4	0	mm	50.00	47	       370
Frame#	Time	
		

47	0.920	-681.43567	-82.44830	1534.63879	-580.88446	104.13998	1355.22815	-584.59064	-11.30540	1051.68176	-589.07550	235.40750	1062.14380	-673.88763	281.09729	872.39905	-579.86548	-10.13873	800.35400	-580.36981	215.69965	790.20117	-683.56091	267.92963	742.73352	-720.38580	250.98064	641.28424	-691.33600	71.56481	571.64838	-688.55206	140.67712	574.13220	-663.88220	13.61108	518.13275	-720.78217	245.47307	575.57269	-670.68127	201.80779	533.15155	-761.03436	257.67960	502.30325	-719.71631	70.92268	216.57156	-648.25281	-66.73561	162.92268	-714.75696	150.27431	216.81882	-764.51416	227.40501	205.81775	-605.99939	-71.41130	158.85258	-882.52209	296.00043	144.52548	-674.39417	54.47678	158.12250	-600.31012	28.47419	166.29305	-548.18011	-24.92870	164.49934	-517.73657	-72.68130	143.04131	-589.34424	207.40147	174.07272	-652.45319	291.54898	157.09966	-615.38306	297.53592	158.75775	-552.65631	243.10706	166.04906	-528.15491	304.03677	146.32214	-663.03674	110.77721	1852.27856	-795.42206	179.76042	184.47232	-700.74048	282.89313	1530.01953	-793.58679	39.22904	174.96594	-788.33191	91.35280	1062.13232	-754.80188	-48.65464	488.06308	-758.19635	-19.01923	206.86519	-875.87817	-78.62728	141.29668				-675.88873	-67.06344	754.40710	-702.00220	-38.37039	613.05048	-710.80627	-36.30711	567.53601	-675.47968	165.86617	157.23630	-654.53760	-77.50114	870.38312	
48	0.940	-681.53857	-82.29377	1534.61560	-581.31012	104.32071	1355.16296	-584.54852	-11.26468	1051.64734	-589.05981	235.40291	1062.25903	-673.90588	281.47992	872.44385	-579.89233	-10.21965	800.29901	-580.23639	215.89734	790.22638	-683.51587	267.89981	742.49310	-720.43896	251.05316	641.17853	-691.10010	71.42475	571.59161	-688.82825	140.98753	573.74689	-663.77008	13.80414	517.90710	-721.06488	245.34920	575.45764	-670.68127	201.80779	533.15155	-761.02826	257.61896	502.38507	-719.71631	70.92268	216.57156	-648.14844	-66.62303	163.14931	-714.68640	150.15965	217.09584	-764.56171	227.15620	205.61368	-606.06403	-71.37038	158.94516	-882.60907	296.15216	144.67964	-674.27197	54.42945	158.14047	-600.36456	28.30087	166.17993	-548.08527	-24.95277	164.45697	-517.73657	-72.68130	143.04131	-589.17371	207.40979	174.19016	-652.73676	291.55505	157.21484	-615.38306	297.53592	158.75775	-552.59442	243.14197	166.15768	-528.25983	304.01791	146.62834	-663.10205	110.85253	1852.22876	-795.54407	179.94637	184.71727	-700.83026	282.88593	1530.17065	-793.46313	39.04173	175.14648	-788.57550	91.50121	1062.04480	-754.81812	-48.46759	488.10712	-758.34528	-18.98076	206.73993	-875.95648	-78.79716	141.44162				-675.81946	-67.02424	754.23828	-702.08185	-38.58971	613.17462	-710.73029	-36.33328	567.62506	-675.47968	165.86617	157.23630	-654.67859	-77.31515	870.28113	
49	0.960	-681.68378	-82.22092	1534.60742	-581.31012	104.32071	1355.16296	-584.64600	-11.36433	1051.68994	-589.10492	235.69731	1062.33228	-673.90027	281.33810	872.43347	-579.81158	-10.17853	800.38391	-580.29803	215.81581	790.22675	-683.47156	267.82080	742.75519	-720.52582	251.14285	641.29449	-691.45697	71.63821	571.50134				-663.90399	14.08512	517.98328	-720.88666	245.47717	575.24567	-670.61664	201.74617	533.09662	-760.91602	257.58862	502.31476	-719.53339	70.69967	216.33299	-648.30469	-66.60761	163.05515	-714.90424	150.18106	216.81694	-764.51416	227.40501	205.81775	-606.06757	-71.46925	158.92030	-882.46729	296.20953	144.75272	-674.66956	54.55096	158.09886	-600.06854	28.43793	166.56703	-548.00909	-24.74563	164.32124	-517.73657	-72.68130	143.04131	-589.34424	207.40147	174.07272	-652.59985	291.69327	157.20511	-615.37891	297.47803	158.78842	-552.71844	243.29321	165.83524	-528.12195	304.15433	146.74118	-663.20087	110.96725	1852.18860	-795.61993	180.01869	184.99545	-700.86108	282.88467	1530.17334	-793.48187	39.12936	175.02348	-788.76367	91.53271	1062.23108	-754.81812	-48.46759	488.10712	-758.28735	-18.97202	206.81728	-876.07831	-78.80435	141.53267				-675.81946	-67.02424	754.23828	-702.00287	-38.35528	613.03162	-710.73029	-36.33328	567.62506	-675.44983	165.87523	157.17621	-654.67859	-77.31515	870.28113	
50	0.980	-681.64600	-82.23997	1534.60486	-581.28918	104.24704	1355.20752	-584.74329	-11.19678	1051.79224	-589.28424	235.65317	1062.24585	-674.01672	281.36346	872.54291	-579.85651	-10.21345	800.44385	-580.24451	215.89491	790.30566	-683.47156	267.82080	742.75519	-720.36279	251.13744	641.10632	-691.50372	71.59591	571.48480	-688.64172	140.93835	573.88013	-663.77905	14.02560	517.87451	-720.84552	245.45839	575.35309	-670.34698	201.76736	533.31360	-761.03436	257.67960	502.30325	-719.71631	70.92268	216.57156	-648.24792	-66.40784	163.00963	-714.88873	150.28929	216.93533	-764.46460	227.43481	205.89720	-606.00446	-71.47047	159.00809	-882.57111	296.04724	144.60146	-674.28308	54.44028	157.92305	-600.08771	28.38457	166.57817	-548.04926	-24.77271	164.26361	-517.71454	-72.76344	143.12502	-589.27466	207.37048	174.13953	-652.45123	291.46823	157.21196	-615.37891	297.47803	158.78842	-552.74689	243.15744	165.86147	-528.32721	304.15747	146.54100	-663.39722	111.14875	1852.24194	-795.40155	179.82942	184.53998	-700.91187	282.96835	1530.06470	-793.52216	39.14102	175.12222	-788.64703	91.58687	1062.13281	-754.75739	-48.47638	488.16718	-758.03717	-19.11791	207.02655	-875.95648	-78.79716	141.44162				-675.94067	-67.08632	754.31091	-702.11597	-38.46294	613.33337	-710.77356	-36.12976	567.66003	-675.38629	165.97687	157.36530	-654.48901	-77.18298	870.19965	
